<mxfile host="app.diagrams.net" modified="2023-11-28T18:11:24.022Z" agent="Mozilla/5.0 (Windows NT 10.0; Win64; x64) AppleWebKit/537.36 (KHTML, like Gecko) Chrome/119.0.0.0 Safari/537.36" etag="w-XkoNjPa70JyZo8-gPc" version="22.1.4" type="device">
  <diagram name="Page-1" id="_3QuCKfloC57lX726gdE">
    <mxGraphModel dx="1900" dy="1634" grid="1" gridSize="10" guides="1" tooltips="1" connect="1" arrows="1" fold="1" page="1" pageScale="1" pageWidth="850" pageHeight="1100" math="0" shadow="0">
      <root>
        <mxCell id="0" />
        <mxCell id="1" parent="0" />
        <mxCell id="1bo0UYqhoN-A2atC3ERc-1" value="Andrew Forster&lt;br&gt;CST-120&lt;br&gt;9/7/2023&lt;br&gt;Milestone 6&lt;br&gt;(This is my work or where citations go)" style="text;strokeColor=none;align=center;fillColor=none;html=1;verticalAlign=middle;whiteSpace=wrap;rounded=0;" parent="1" vertex="1">
          <mxGeometry x="-120" y="-190" width="280" height="120" as="geometry" />
        </mxCell>
        <mxCell id="1bo0UYqhoN-A2atC3ERc-10" style="edgeStyle=orthogonalEdgeStyle;rounded=0;orthogonalLoop=1;jettySize=auto;html=1;" parent="1" source="1bo0UYqhoN-A2atC3ERc-3" edge="1">
          <mxGeometry relative="1" as="geometry">
            <mxPoint x="405" y="200" as="targetPoint" />
            <Array as="points">
              <mxPoint x="405" y="190" />
              <mxPoint x="405" y="190" />
            </Array>
          </mxGeometry>
        </mxCell>
        <mxCell id="1bo0UYqhoN-A2atC3ERc-11" style="edgeStyle=orthogonalEdgeStyle;rounded=0;orthogonalLoop=1;jettySize=auto;html=1;" parent="1" source="1bo0UYqhoN-A2atC3ERc-3" edge="1">
          <mxGeometry relative="1" as="geometry">
            <mxPoint x="550" y="200" as="targetPoint" />
            <Array as="points">
              <mxPoint x="405" y="160" />
              <mxPoint x="551" y="160" />
              <mxPoint x="551" y="200" />
            </Array>
          </mxGeometry>
        </mxCell>
        <mxCell id="1bo0UYqhoN-A2atC3ERc-12" style="edgeStyle=orthogonalEdgeStyle;rounded=0;orthogonalLoop=1;jettySize=auto;html=1;" parent="1" source="1bo0UYqhoN-A2atC3ERc-3" target="1bo0UYqhoN-A2atC3ERc-9" edge="1">
          <mxGeometry relative="1" as="geometry">
            <Array as="points">
              <mxPoint x="405" y="160" />
              <mxPoint x="690" y="160" />
            </Array>
          </mxGeometry>
        </mxCell>
        <mxCell id="1bo0UYqhoN-A2atC3ERc-13" style="edgeStyle=orthogonalEdgeStyle;rounded=0;orthogonalLoop=1;jettySize=auto;html=1;" parent="1" source="1bo0UYqhoN-A2atC3ERc-3" edge="1">
          <mxGeometry relative="1" as="geometry">
            <mxPoint x="260" y="200" as="targetPoint" />
            <Array as="points">
              <mxPoint x="405" y="160" />
              <mxPoint x="261" y="160" />
              <mxPoint x="261" y="200" />
            </Array>
          </mxGeometry>
        </mxCell>
        <mxCell id="1bo0UYqhoN-A2atC3ERc-14" style="edgeStyle=orthogonalEdgeStyle;rounded=0;orthogonalLoop=1;jettySize=auto;html=1;" parent="1" source="1bo0UYqhoN-A2atC3ERc-3" edge="1">
          <mxGeometry relative="1" as="geometry">
            <mxPoint x="120" y="200" as="targetPoint" />
            <Array as="points">
              <mxPoint x="405" y="160" />
              <mxPoint x="121" y="160" />
              <mxPoint x="121" y="200" />
            </Array>
          </mxGeometry>
        </mxCell>
        <mxCell id="1bo0UYqhoN-A2atC3ERc-3" value="&lt;b&gt;&lt;font style=&quot;font-size: 24px;&quot;&gt;Home&lt;/font&gt;&lt;/b&gt;" style="rounded=1;whiteSpace=wrap;html=1;" parent="1" vertex="1">
          <mxGeometry x="300" y="-10" width="210" height="120" as="geometry" />
        </mxCell>
        <mxCell id="1bo0UYqhoN-A2atC3ERc-4" value="About Me" style="rounded=1;whiteSpace=wrap;html=1;" parent="1" vertex="1">
          <mxGeometry x="50" y="210" width="120" height="60" as="geometry" />
        </mxCell>
        <mxCell id="1bo0UYqhoN-A2atC3ERc-5" value="Testimoney" style="rounded=1;whiteSpace=wrap;html=1;" parent="1" vertex="1">
          <mxGeometry x="200" y="210" width="120" height="60" as="geometry" />
        </mxCell>
        <mxCell id="1bo0UYqhoN-A2atC3ERc-7" value="Contact Points" style="rounded=1;whiteSpace=wrap;html=1;" parent="1" vertex="1">
          <mxGeometry x="345" y="210" width="120" height="60" as="geometry" />
        </mxCell>
        <mxCell id="1bo0UYqhoN-A2atC3ERc-8" value="Projects" style="rounded=1;whiteSpace=wrap;html=1;" parent="1" vertex="1">
          <mxGeometry x="490" y="210" width="120" height="60" as="geometry" />
        </mxCell>
        <mxCell id="1bo0UYqhoN-A2atC3ERc-9" value="Source Code" style="rounded=1;whiteSpace=wrap;html=1;" parent="1" vertex="1">
          <mxGeometry x="630" y="210" width="120" height="60" as="geometry" />
        </mxCell>
        <mxCell id="1bo0UYqhoN-A2atC3ERc-15" value="&lt;b&gt;&lt;font style=&quot;font-size: 48px;&quot;&gt;Website About ME&lt;/font&gt;&lt;/b&gt;" style="text;strokeColor=none;align=center;fillColor=none;html=1;verticalAlign=middle;whiteSpace=wrap;rounded=0;" parent="1" vertex="1">
          <mxGeometry x="340" y="-180" width="460" height="100" as="geometry" />
        </mxCell>
      </root>
    </mxGraphModel>
  </diagram>
</mxfile>
